<svg id="svg" version="1.1" xmlns="http://www.w3.org/2000/svg" xmlns:xlink="http://www.w3.org/1999/xlink" width="400" height="400" viewBox="0, 0, 400,400"><g id="svgg"><path id="path0" d="M195.262 1.200 C 194.602 1.860,193.950 2.400,193.814 2.400 C 193.539 2.400,192.617 3.124,191.881 3.919 C 191.616 4.205,191.166 4.655,190.881 4.919 C 190.595 5.184,190.145 5.631,189.881 5.914 C 189.616 6.197,189.195 6.647,188.944 6.914 C 188.694 7.181,187.978 7.760,187.355 8.200 C 186.045 9.124,185.420 9.752,180.800 14.780 C 178.930 16.815,177.181 18.687,176.914 18.940 C 176.647 19.193,176.197 19.616,175.914 19.881 C 175.631 20.145,175.184 20.595,174.919 20.881 C 174.655 21.166,174.205 21.603,173.919 21.851 C 173.634 22.099,173.040 22.810,172.600 23.431 C 172.160 24.052,171.260 25.149,170.600 25.868 C 168.927 27.692,168.400 28.336,168.400 28.555 C 168.400 28.658,167.770 29.411,167.000 30.227 C 166.230 31.044,165.600 31.840,165.600 31.997 C 165.600 32.153,165.054 32.893,164.386 33.641 C 163.719 34.388,162.819 35.399,162.386 35.886 C 161.954 36.373,161.600 36.950,161.600 37.168 C 161.600 37.385,161.150 38.014,160.600 38.564 C 160.050 39.114,159.600 39.753,159.600 39.984 C 159.600 40.216,159.150 40.797,158.600 41.275 C 158.050 41.753,157.600 42.387,157.600 42.685 C 157.600 42.982,157.330 43.329,157.000 43.455 C 156.670 43.582,156.400 44.007,156.400 44.400 C 156.400 44.793,156.130 45.218,155.800 45.345 C 155.470 45.471,155.200 45.928,155.200 46.360 C 155.200 46.793,154.858 47.255,154.440 47.387 C 154.022 47.520,153.568 48.072,153.432 48.614 C 153.296 49.156,153.008 49.600,152.792 49.600 C 152.577 49.600,152.400 49.941,152.400 50.357 C 152.400 50.774,152.130 51.218,151.800 51.345 C 151.470 51.471,151.200 51.941,151.200 52.387 C 151.200 52.834,151.048 53.200,150.863 53.200 C 150.678 53.200,150.183 53.875,149.763 54.700 C 149.343 55.525,148.711 56.470,148.357 56.800 C 148.004 57.130,147.577 57.836,147.408 58.369 C 147.240 58.902,146.752 59.712,146.324 60.169 C 145.895 60.626,145.445 61.495,145.323 62.100 C 145.200 62.705,144.971 63.200,144.813 63.200 C 144.655 63.200,144.183 63.875,143.763 64.700 C 143.343 65.525,142.901 66.290,142.779 66.400 C 142.423 66.722,141.200 69.480,141.200 69.960 C 141.200 70.202,141.020 70.400,140.800 70.400 C 140.580 70.400,140.400 70.670,140.400 71.000 C 140.400 71.330,140.240 71.600,140.045 71.600 C 139.849 71.600,139.571 72.230,139.426 73.000 C 139.282 73.770,138.992 74.400,138.782 74.400 C 138.572 74.400,138.400 74.670,138.400 75.000 C 138.400 75.330,138.240 75.600,138.045 75.600 C 137.849 75.600,137.571 76.230,137.426 77.000 C 137.282 77.770,137.034 78.400,136.876 78.400 C 136.568 78.400,135.200 81.341,135.200 82.003 C 135.200 82.221,135.020 82.400,134.800 82.400 C 134.580 82.400,134.400 82.649,134.400 82.954 C 134.400 83.259,134.131 84.024,133.802 84.654 C 133.474 85.284,133.204 86.115,133.202 86.500 C 133.201 86.885,133.020 87.200,132.800 87.200 C 132.580 87.200,132.400 87.650,132.400 88.200 C 132.400 88.750,132.240 89.200,132.043 89.200 C 131.847 89.200,131.567 89.695,131.421 90.300 C 131.055 91.815,130.258 93.600,129.948 93.600 C 129.806 93.600,129.569 94.410,129.421 95.400 C 129.272 96.390,128.982 97.200,128.775 97.200 C 128.569 97.200,128.400 97.650,128.400 98.200 C 128.400 98.750,128.244 99.200,128.052 99.200 C 127.861 99.200,127.600 99.843,127.473 100.630 C 127.207 102.269,126.335 104.400,125.931 104.400 C 125.781 104.400,125.534 105.392,125.382 106.605 C 125.230 107.818,124.948 108.909,124.753 109.029 C 124.559 109.149,124.400 109.687,124.400 110.224 C 124.400 110.761,124.237 111.200,124.038 111.200 C 123.838 111.200,123.551 112.100,123.400 113.200 C 123.249 114.300,122.962 115.200,122.762 115.200 C 122.563 115.200,122.400 115.740,122.400 116.400 C 122.400 117.060,122.238 117.600,122.039 117.600 C 121.841 117.600,121.553 118.680,121.400 120.000 C 121.247 121.320,120.959 122.400,120.761 122.400 C 120.562 122.400,120.400 123.030,120.400 123.800 C 120.400 124.570,120.235 125.200,120.034 125.200 C 119.833 125.200,119.542 126.550,119.387 128.200 C 119.233 129.850,118.947 131.200,118.753 131.200 C 118.559 131.200,118.400 131.819,118.400 132.576 C 118.400 133.333,118.236 134.054,118.036 134.178 C 117.835 134.302,117.544 135.932,117.388 137.801 C 117.233 139.671,116.947 141.200,116.753 141.200 C 116.559 141.200,116.400 142.100,116.400 143.200 C 116.400 144.300,116.238 145.200,116.039 145.200 C 115.841 145.200,115.550 147.270,115.392 149.800 C 115.233 152.330,114.946 154.400,114.752 154.400 C 114.558 154.400,114.400 155.735,114.400 157.367 C 114.400 159.093,114.223 160.392,113.978 160.474 C 113.699 160.567,113.474 165.265,113.314 174.323 C 113.181 181.863,112.921 188.125,112.736 188.239 C 112.300 188.509,112.299 190.291,112.735 190.560 C 112.920 190.674,113.186 196.297,113.327 203.055 C 113.482 210.535,113.743 215.503,113.991 215.751 C 114.216 215.976,114.400 217.564,114.400 219.280 C 114.400 220.996,114.558 222.400,114.752 222.400 C 114.945 222.400,115.234 224.650,115.392 227.400 C 115.551 230.150,115.842 232.400,116.040 232.400 C 116.238 232.400,116.400 233.390,116.400 234.600 C 116.400 235.810,116.559 236.800,116.752 236.800 C 116.946 236.800,117.233 238.510,117.390 240.600 C 117.546 242.690,117.838 244.400,118.037 244.400 C 118.237 244.400,118.400 245.109,118.400 245.976 C 118.400 246.843,118.580 247.664,118.800 247.800 C 119.839 248.442,119.114 249.184,117.200 249.438 C 116.100 249.584,115.200 249.860,115.200 250.052 C 115.200 250.243,114.851 250.400,114.424 250.400 C 113.997 250.400,113.549 250.560,113.428 250.755 C 113.307 250.950,112.577 251.228,111.804 251.373 C 111.032 251.518,110.400 251.808,110.400 252.018 C 110.400 252.228,110.130 252.400,109.800 252.400 C 109.470 252.400,109.200 252.568,109.200 252.773 C 109.200 252.978,108.795 253.274,108.300 253.430 C 107.805 253.587,107.109 254.049,106.753 254.457 C 106.397 254.866,105.905 255.200,105.659 255.200 C 105.139 255.200,98.400 261.933,98.400 262.452 C 98.400 262.643,98.085 263.133,97.700 263.540 C 96.292 265.029,95.600 266.022,95.600 266.556 C 95.600 266.856,95.330 267.326,95.000 267.600 C 94.670 267.874,94.400 268.346,94.400 268.649 C 94.400 268.952,94.234 269.200,94.032 269.200 C 93.829 269.200,93.545 269.740,93.400 270.400 C 93.255 271.060,92.971 271.600,92.768 271.600 C 92.566 271.600,92.400 272.050,92.400 272.600 C 92.400 273.150,92.240 273.600,92.045 273.600 C 91.849 273.600,91.567 274.252,91.417 275.049 C 91.268 275.846,90.978 276.836,90.773 277.249 C 90.568 277.662,90.216 278.364,89.991 278.809 C 89.766 279.254,89.472 280.424,89.337 281.409 C 89.202 282.394,88.936 283.200,88.746 283.200 C 88.556 283.200,88.400 283.740,88.400 284.400 C 88.400 285.060,88.239 285.600,88.042 285.600 C 87.845 285.600,87.556 287.040,87.400 288.800 C 87.244 290.560,86.955 292.000,86.758 292.000 C 86.561 292.000,86.400 292.954,86.400 294.120 C 86.400 295.286,86.175 296.465,85.900 296.740 C 85.512 297.128,85.400 302.206,85.400 319.400 C 85.400 336.595,85.512 341.672,85.900 342.060 C 86.209 342.369,86.400 343.677,86.400 345.480 C 86.400 347.086,86.557 348.400,86.749 348.400 C 86.940 348.400,87.226 350.559,87.384 353.198 C 87.541 355.837,87.834 358.098,88.035 358.222 C 88.236 358.346,88.400 359.326,88.400 360.400 C 88.400 361.474,88.563 362.454,88.763 362.577 C 88.962 362.700,89.254 364.511,89.410 366.601 C 89.567 368.690,89.854 370.400,90.048 370.400 C 90.241 370.400,90.400 371.199,90.400 372.176 C 90.400 373.153,90.561 374.052,90.758 374.174 C 90.955 374.296,91.244 375.837,91.400 377.598 C 91.556 379.359,91.845 380.800,92.042 380.800 C 92.239 380.800,92.400 381.610,92.400 382.600 C 92.400 383.590,92.562 384.400,92.759 384.400 C 92.957 384.400,93.245 385.661,93.400 387.202 C 93.555 388.742,93.843 390.103,94.041 390.225 C 94.238 390.347,94.400 390.977,94.400 391.624 C 94.400 392.271,94.580 392.800,94.800 392.800 C 95.020 392.800,95.202 393.385,95.204 394.100 C 95.207 394.815,95.320 396.075,95.457 396.900 L 95.705 398.400 98.992 398.400 L 102.278 398.400 102.539 394.138 C 102.683 391.794,102.800 387.934,102.800 385.561 C 102.800 383.117,102.973 381.140,103.200 381.000 C 103.425 380.861,103.600 378.937,103.600 376.600 C 103.600 374.316,103.757 372.350,103.949 372.232 C 104.140 372.113,104.428 368.953,104.588 365.208 C 104.748 361.464,105.041 358.400,105.240 358.400 C 105.438 358.400,105.600 357.151,105.600 355.624 C 105.600 354.097,105.760 352.748,105.956 352.627 C 106.151 352.507,106.441 350.246,106.600 347.604 C 106.759 344.962,107.049 342.800,107.244 342.800 C 107.440 342.800,107.600 341.810,107.600 340.600 C 107.600 339.390,107.763 338.400,107.963 338.400 C 108.162 338.400,108.454 336.690,108.610 334.600 C 108.767 332.510,109.054 330.800,109.248 330.800 C 109.441 330.800,109.600 330.080,109.600 329.200 C 109.600 328.320,109.762 327.600,109.959 327.600 C 110.157 327.600,110.445 326.339,110.600 324.798 C 110.755 323.258,111.043 321.897,111.241 321.775 C 111.438 321.653,111.600 320.933,111.600 320.176 C 111.600 319.419,111.759 318.800,111.954 318.800 C 112.149 318.800,112.432 317.810,112.583 316.600 C 112.734 315.390,113.025 314.400,113.229 314.400 C 113.433 314.400,113.600 313.950,113.600 313.400 C 113.600 312.850,113.763 312.400,113.962 312.400 C 114.162 312.400,114.449 311.500,114.600 310.400 C 114.751 309.300,115.038 308.400,115.238 308.400 C 115.437 308.400,115.600 308.051,115.600 307.624 C 115.600 307.197,115.760 306.749,115.955 306.628 C 116.150 306.507,116.428 305.777,116.573 305.004 C 116.718 304.232,117.008 303.600,117.218 303.600 C 117.428 303.600,117.600 303.330,117.600 303.000 C 117.600 302.670,117.760 302.400,117.955 302.400 C 118.151 302.400,118.429 301.770,118.574 301.000 C 118.718 300.230,118.969 299.600,119.132 299.600 C 119.294 299.600,119.748 299.057,120.140 298.394 C 120.762 297.341,122.229 295.784,124.185 294.100 C 124.505 293.825,124.939 293.600,125.150 293.600 C 125.361 293.600,125.600 293.399,125.682 293.154 C 126.321 291.238,131.102 293.088,131.477 295.396 C 131.602 296.168,131.861 296.800,132.052 296.800 C 132.244 296.800,132.400 297.250,132.400 297.800 C 132.400 298.350,132.563 298.800,132.762 298.800 C 132.962 298.800,133.249 299.700,133.400 300.800 C 133.551 301.900,133.838 302.800,134.038 302.800 C 134.237 302.800,134.400 303.149,134.400 303.576 C 134.400 304.003,134.570 304.458,134.777 304.586 C 134.984 304.714,135.275 305.624,135.422 306.609 C 135.570 307.594,135.850 308.400,136.045 308.400 C 136.240 308.400,136.400 308.850,136.400 309.400 C 136.400 309.950,136.572 310.400,136.782 310.400 C 136.992 310.400,137.288 311.075,137.440 311.900 C 137.591 312.725,137.824 313.490,137.958 313.600 C 138.490 314.039,139.160 315.578,139.418 316.955 C 139.568 317.755,139.850 318.507,140.045 318.628 C 140.240 318.749,140.400 319.197,140.400 319.624 C 140.400 320.051,140.578 320.400,140.795 320.400 C 141.013 320.400,141.306 321.120,141.446 322.000 C 141.587 322.880,141.859 323.600,142.051 323.600 C 142.243 323.600,142.400 323.870,142.400 324.200 C 142.400 324.530,142.560 324.800,142.755 324.800 C 142.950 324.800,143.231 325.610,143.379 326.600 C 143.528 327.590,143.818 328.400,144.025 328.400 C 144.231 328.400,144.400 328.670,144.400 329.000 C 144.400 329.330,144.564 329.600,144.765 329.600 C 144.966 329.600,145.251 330.320,145.400 331.200 C 145.549 332.080,145.834 332.800,146.035 332.800 C 146.236 332.800,146.400 333.160,146.400 333.600 C 146.400 334.040,146.543 334.400,146.717 334.400 C 146.892 334.400,147.371 335.390,147.782 336.600 C 148.193 337.810,148.681 338.800,148.865 338.800 C 149.049 338.800,149.200 339.160,149.200 339.600 C 149.200 340.390,149.467 340.400,170.400 340.400 L 191.600 340.400 191.600 370.200 L 191.600 400.000 199.600 400.000 L 207.600 400.000 207.600 370.204 L 207.600 340.407 228.898 340.304 L 250.197 340.200 250.555 338.500 C 250.752 337.565,251.068 336.800,251.257 336.800 C 251.446 336.800,251.600 336.530,251.600 336.200 C 251.600 335.870,251.772 335.600,251.982 335.600 C 252.192 335.600,252.482 334.968,252.627 334.196 C 252.772 333.423,253.050 332.693,253.245 332.572 C 253.440 332.451,253.600 332.003,253.600 331.576 C 253.600 331.149,253.766 330.800,253.968 330.800 C 254.171 330.800,254.455 330.262,254.599 329.605 C 254.743 328.947,255.028 328.306,255.231 328.181 C 255.434 328.055,255.600 327.603,255.600 327.176 C 255.600 326.749,255.769 326.400,255.975 326.400 C 256.182 326.400,256.472 325.590,256.621 324.600 C 256.769 323.610,257.050 322.800,257.245 322.800 C 257.440 322.800,257.600 322.530,257.600 322.200 C 257.600 321.870,257.764 321.600,257.965 321.600 C 258.166 321.600,258.451 320.880,258.600 320.000 C 258.749 319.120,259.034 318.400,259.235 318.400 C 259.436 318.400,259.600 318.051,259.600 317.624 C 259.600 317.197,259.757 316.750,259.948 316.632 C 260.140 316.514,260.414 315.829,260.558 315.111 C 260.888 313.458,261.703 311.600,262.098 311.600 C 262.264 311.600,262.401 311.195,262.402 310.700 C 262.404 310.205,262.674 309.284,263.002 308.654 C 263.331 308.024,263.600 307.259,263.600 306.954 C 263.600 306.649,263.763 306.400,263.962 306.400 C 264.162 306.400,264.449 305.500,264.600 304.400 C 264.751 303.300,265.038 302.400,265.238 302.400 C 265.437 302.400,265.600 302.040,265.600 301.600 C 265.600 301.160,265.763 300.800,265.962 300.800 C 266.162 300.800,266.449 299.900,266.600 298.800 C 266.751 297.700,267.038 296.800,267.238 296.800 C 267.437 296.800,267.600 296.350,267.600 295.800 C 267.600 295.250,267.760 294.800,267.957 294.800 C 268.153 294.800,268.426 294.350,268.564 293.800 C 269.013 292.013,274.099 292.388,275.320 294.299 C 275.496 294.575,275.991 294.800,276.420 294.800 C 276.849 294.800,277.200 295.051,277.200 295.358 C 277.200 295.664,277.740 296.493,278.400 297.200 C 279.060 297.907,279.600 298.736,279.600 299.042 C 279.600 299.349,279.780 299.600,280.000 299.600 C 280.220 299.600,280.400 299.870,280.400 300.200 C 280.400 300.530,280.580 300.800,280.800 300.800 C 281.020 300.800,281.200 301.087,281.200 301.438 C 281.200 302.085,282.365 304.423,282.881 304.812 C 283.036 304.929,283.284 305.784,283.432 306.712 C 283.581 307.640,283.815 308.400,283.953 308.400 C 284.362 308.400,285.147 310.471,285.436 312.309 C 285.584 313.249,285.861 314.114,286.053 314.232 C 286.244 314.351,286.400 314.887,286.400 315.424 C 286.400 315.961,286.566 316.400,286.768 316.400 C 286.971 316.400,287.262 317.570,287.415 319.000 C 287.568 320.430,287.852 321.600,288.047 321.600 C 288.241 321.600,288.400 322.219,288.400 322.976 C 288.400 323.733,288.562 324.453,288.759 324.575 C 288.957 324.697,289.245 326.058,289.400 327.600 C 289.555 329.142,289.843 330.503,290.041 330.625 C 290.238 330.747,290.400 331.647,290.400 332.624 C 290.400 333.601,290.561 334.400,290.757 334.400 C 290.953 334.400,291.243 336.200,291.400 338.400 C 291.557 340.600,291.847 342.400,292.043 342.400 C 292.239 342.400,292.400 343.390,292.400 344.600 C 292.400 345.810,292.562 346.800,292.759 346.800 C 292.956 346.800,293.248 349.230,293.407 352.200 C 293.566 355.170,293.855 357.600,294.048 357.600 C 294.242 357.600,294.400 359.004,294.400 360.720 C 294.400 362.436,294.568 364.011,294.773 364.220 C 294.978 364.429,295.274 368.071,295.431 372.313 C 295.589 376.555,295.871 380.120,296.059 380.236 C 296.246 380.352,296.400 382.957,296.400 386.024 C 296.400 389.475,296.552 391.600,296.800 391.600 C 297.035 391.600,297.200 393.000,297.200 395.000 L 297.200 398.400 300.400 398.400 C 303.547 398.400,303.600 398.383,303.600 397.400 C 303.600 396.850,303.765 396.400,303.966 396.400 C 304.167 396.400,304.458 395.050,304.613 393.400 C 304.767 391.750,305.053 390.400,305.247 390.400 C 305.441 390.400,305.600 389.770,305.600 389.000 C 305.600 388.230,305.764 387.600,305.964 387.600 C 306.164 387.600,306.456 386.070,306.611 384.200 C 306.767 382.330,307.053 380.800,307.247 380.800 C 307.441 380.800,307.600 380.080,307.600 379.200 C 307.600 378.320,307.764 377.600,307.964 377.600 C 308.164 377.600,308.456 376.070,308.611 374.200 C 308.767 372.330,309.053 370.800,309.247 370.800 C 309.441 370.800,309.600 369.900,309.600 368.800 C 309.600 367.700,309.761 366.800,309.957 366.800 C 310.153 366.800,310.443 365.000,310.600 362.800 C 310.757 360.600,311.047 358.800,311.243 358.800 C 311.439 358.800,311.600 357.756,311.600 356.480 C 311.600 355.204,311.767 353.989,311.972 353.780 C 312.177 353.571,312.472 351.015,312.629 348.100 C 312.785 345.185,313.067 342.800,313.256 342.800 C 313.445 342.800,313.600 341.101,313.600 339.024 C 313.600 336.937,313.779 335.137,314.000 335.000 C 314.256 334.842,314.400 328.870,314.400 318.400 C 314.400 307.930,314.256 301.958,314.000 301.800 C 313.780 301.664,313.600 300.481,313.600 299.171 C 313.600 297.861,313.428 296.477,313.218 296.095 C 313.008 295.713,312.722 293.825,312.582 291.900 C 312.442 289.975,312.164 288.400,311.964 288.400 C 311.764 288.400,311.600 287.781,311.600 287.024 C 311.600 286.267,311.428 285.541,311.218 285.411 C 311.009 285.282,310.715 284.101,310.567 282.788 C 310.418 281.475,310.140 280.400,309.948 280.400 C 309.757 280.400,309.600 279.950,309.600 279.400 C 309.600 278.850,309.443 278.400,309.251 278.400 C 309.059 278.400,308.787 277.680,308.646 276.800 C 308.506 275.920,308.213 275.200,307.995 275.200 C 307.778 275.200,307.600 274.750,307.600 274.200 C 307.600 273.650,307.440 273.200,307.245 273.200 C 307.049 273.200,306.771 272.570,306.626 271.800 C 306.482 271.030,306.192 270.400,305.982 270.400 C 305.772 270.400,305.600 270.130,305.600 269.800 C 305.600 269.470,305.420 269.200,305.200 269.200 C 304.980 269.200,304.800 268.862,304.800 268.449 C 304.800 268.036,304.530 267.474,304.200 267.200 C 303.870 266.926,303.600 266.454,303.600 266.151 C 303.600 265.848,303.440 265.600,303.243 265.600 C 303.047 265.600,302.777 265.162,302.642 264.627 C 302.508 264.091,302.039 263.539,301.599 263.400 C 301.160 263.260,300.800 262.875,300.800 262.544 C 300.800 261.911,294.313 255.200,293.701 255.200 C 293.505 255.200,292.953 254.750,292.475 254.200 C 291.997 253.650,291.334 253.200,291.003 253.200 C 290.671 253.200,290.400 253.020,290.400 252.800 C 290.400 252.580,290.040 252.400,289.600 252.400 C 289.160 252.400,288.800 252.234,288.800 252.032 C 288.800 251.829,288.262 251.545,287.605 251.401 C 286.947 251.257,286.306 250.972,286.181 250.769 C 286.055 250.566,285.603 250.400,285.176 250.400 C 284.749 250.400,284.400 250.220,284.400 250.000 C 284.400 249.780,283.905 249.598,283.300 249.595 C 280.586 249.581,280.414 249.376,280.680 246.458 C 280.813 244.996,281.075 243.740,281.261 243.667 C 281.447 243.593,281.600 242.864,281.600 242.047 C 281.600 241.229,281.769 240.389,281.977 240.180 C 282.184 239.971,282.479 237.955,282.634 235.700 C 282.788 233.445,283.069 231.600,283.257 231.600 C 283.446 231.600,283.600 230.535,283.600 229.233 C 283.600 227.932,283.768 226.807,283.974 226.733 C 284.179 226.660,284.475 223.945,284.632 220.700 C 284.788 217.455,285.070 214.800,285.258 214.800 C 285.446 214.800,285.600 212.921,285.600 210.624 C 285.600 208.271,285.775 206.339,286.000 206.200 C 286.550 205.860,286.550 170.000,286.000 170.000 C 285.759 170.000,285.600 168.341,285.600 165.824 C 285.600 163.527,285.446 161.552,285.257 161.435 C 285.068 161.319,284.786 158.833,284.629 155.912 C 284.473 152.990,284.177 150.429,283.972 150.220 C 283.767 150.011,283.600 148.886,283.600 147.720 C 283.600 146.554,283.443 145.600,283.252 145.600 C 283.060 145.600,282.777 143.982,282.622 142.005 C 282.467 140.028,282.174 138.308,281.970 138.182 C 281.767 138.056,281.600 137.153,281.600 136.176 C 281.600 135.199,281.435 134.400,281.234 134.400 C 281.033 134.400,280.742 133.050,280.587 131.400 C 280.433 129.750,280.147 128.400,279.953 128.400 C 279.759 128.400,279.600 127.770,279.600 127.000 C 279.600 126.230,279.434 125.600,279.232 125.600 C 279.029 125.600,278.738 124.430,278.585 123.000 C 278.432 121.570,278.148 120.400,277.953 120.400 C 277.759 120.400,277.600 119.871,277.600 119.224 C 277.600 118.577,277.437 117.946,277.237 117.823 C 277.038 117.700,276.751 116.699,276.600 115.600 C 276.449 114.500,276.162 113.600,275.962 113.600 C 275.763 113.600,275.600 113.060,275.600 112.400 C 275.600 111.740,275.437 111.200,275.238 111.200 C 275.038 111.200,274.751 110.300,274.600 109.200 C 274.449 108.100,274.162 107.200,273.962 107.200 C 273.763 107.200,273.600 106.750,273.600 106.200 C 273.600 105.650,273.437 105.200,273.238 105.200 C 273.038 105.200,272.751 104.300,272.600 103.200 C 272.449 102.100,272.162 101.200,271.962 101.200 C 271.763 101.200,271.600 100.851,271.600 100.424 C 271.600 99.997,271.430 99.542,271.223 99.414 C 271.016 99.286,270.725 98.376,270.578 97.391 C 270.430 96.406,270.150 95.600,269.955 95.600 C 269.760 95.600,269.600 95.150,269.600 94.600 C 269.600 94.050,269.434 93.600,269.232 93.600 C 269.029 93.600,268.745 93.062,268.601 92.405 C 268.457 91.747,268.172 91.106,267.969 90.981 C 267.766 90.855,267.600 90.403,267.600 89.976 C 267.600 89.549,267.443 89.200,267.250 89.200 C 267.058 89.200,266.783 88.616,266.641 87.903 C 266.318 86.288,265.498 84.400,265.120 84.400 C 264.964 84.400,264.718 83.770,264.574 83.000 C 264.429 82.230,264.151 81.600,263.955 81.600 C 263.760 81.600,263.600 81.240,263.600 80.800 C 263.600 80.360,263.440 80.000,263.245 80.000 C 263.049 80.000,262.771 79.370,262.626 78.600 C 262.482 77.830,262.192 77.200,261.982 77.200 C 261.772 77.200,261.600 76.840,261.600 76.400 C 261.600 75.960,261.434 75.600,261.232 75.600 C 261.029 75.600,260.745 75.060,260.600 74.400 C 260.455 73.740,260.171 73.200,259.968 73.200 C 259.766 73.200,259.600 72.840,259.600 72.400 C 259.600 71.960,259.434 71.600,259.232 71.600 C 259.029 71.600,258.745 71.060,258.600 70.400 C 258.455 69.740,258.171 69.200,257.968 69.200 C 257.766 69.200,257.600 68.930,257.600 68.600 C 257.600 68.270,257.434 68.000,257.232 68.000 C 257.029 68.000,256.745 67.460,256.600 66.800 C 256.455 66.140,256.171 65.600,255.968 65.600 C 255.766 65.600,255.600 65.330,255.600 65.000 C 255.600 64.670,255.440 64.400,255.243 64.400 C 255.047 64.400,254.784 63.991,254.659 63.492 C 254.534 62.993,254.085 62.213,253.662 61.759 C 253.239 61.305,252.768 60.363,252.615 59.667 C 252.462 58.970,252.199 58.400,252.031 58.400 C 251.863 58.400,251.383 57.725,250.963 56.900 C 250.543 56.075,249.930 55.130,249.600 54.800 C 249.270 54.470,248.657 53.525,248.237 52.700 C 247.817 51.875,247.322 51.200,247.137 51.200 C 246.952 51.200,246.800 50.943,246.800 50.629 C 246.800 50.314,246.575 49.812,246.300 49.512 C 245.716 48.875,244.913 47.653,244.517 46.801 C 244.364 46.472,243.825 45.788,243.319 45.283 C 242.814 44.777,242.400 44.142,242.400 43.870 C 242.400 43.599,242.040 43.117,241.600 42.800 C 241.160 42.483,240.800 42.006,240.800 41.740 C 240.800 41.475,240.563 41.019,240.273 40.729 C 239.984 40.438,239.399 39.660,238.973 39.000 C 238.071 37.601,237.277 36.573,236.300 35.540 C 235.915 35.133,235.600 34.702,235.600 34.583 C 235.600 34.342,235.029 33.622,233.748 32.247 C 233.279 31.744,232.775 30.952,232.627 30.487 C 232.480 30.021,232.017 29.533,231.600 29.400 C 231.183 29.267,230.730 28.808,230.594 28.380 C 230.457 27.951,230.178 27.600,229.973 27.600 C 229.768 27.600,229.600 27.406,229.600 27.169 C 229.600 26.931,228.880 26.024,228.000 25.153 C 227.120 24.282,226.400 23.408,226.400 23.212 C 226.400 22.712,206.906 3.200,206.407 3.200 C 206.183 3.200,205.280 2.480,204.400 1.600 C 202.181 -0.619,197.294 -0.833,195.262 1.200 M205.047 10.345 C 218.934 23.040,230.462 36.676,241.276 53.200 C 243.796 57.050,246.313 61.010,246.869 62.000 C 247.425 62.990,248.597 65.060,249.473 66.600 C 253.349 73.408,259.600 86.110,259.600 87.177 C 259.600 87.472,241.512 87.600,199.600 87.600 C 163.445 87.600,139.600 87.454,139.600 87.233 C 139.600 84.652,151.272 63.247,159.031 51.600 C 171.685 32.603,180.148 22.397,191.162 12.849 C 194.111 10.292,197.081 7.712,197.762 7.116 C 199.604 5.504,199.891 5.631,205.047 10.345 M263.503 96.000 C 278.347 135.245,283.381 172.847,279.378 214.600 C 278.271 226.143,276.935 234.969,274.040 249.844 C 273.327 253.505,269.167 270.504,268.373 273.000 C 268.163 273.660,267.467 276.000,266.827 278.200 C 264.611 285.816,261.397 295.560,258.942 302.103 L 257.928 304.806 232.664 304.703 L 207.400 304.600 207.200 276.600 L 207.000 248.600 199.600 248.600 L 192.200 248.600 192.097 276.700 L 191.995 304.800 166.846 304.800 C 147.207 304.800,141.611 304.690,141.300 304.300 C 139.872 302.507,132.106 278.045,128.823 265.000 C 123.877 245.347,121.851 233.632,119.520 211.200 C 118.813 204.399,118.808 171.997,119.513 165.400 C 120.875 152.652,122.241 143.359,123.804 136.200 C 124.140 134.660,124.579 132.590,124.779 131.600 C 125.104 129.997,125.785 127.338,127.753 120.000 C 129.333 114.107,132.556 104.390,135.283 97.299 L 136.860 93.198 199.690 93.299 L 262.519 93.400 263.503 96.000 M192.400 136.790 C 168.762 141.748,156.500 167.637,167.632 189.084 C 181.286 215.391,219.961 214.467,232.353 187.537 C 244.789 160.511,221.335 130.721,192.400 136.790 M208.538 141.556 C 236.600 149.849,239.612 188.806,213.149 201.189 C 192.000 211.085,167.792 195.580,167.890 172.200 C 167.978 150.916,188.319 135.581,208.538 141.556 M194.600 147.054 C 164.892 154.699,169.139 197.765,199.600 197.765 C 216.096 197.765,229.517 180.330,224.359 165.600 C 221.219 156.635,216.478 151.418,208.691 148.358 C 205.444 147.082,197.387 146.337,194.600 147.054 M203.494 153.763 C 218.024 156.881,223.398 174.828,212.971 185.414 C 203.656 194.870,188.344 192.169,182.511 180.041 C 175.907 166.312,188.497 150.545,203.494 153.763 M123.567 258.235 C 124.207 260.416,125.934 266.520,127.405 271.800 C 128.876 277.080,130.311 282.120,130.593 283.000 C 130.876 283.880,131.227 285.162,131.374 285.848 L 131.641 287.096 128.840 286.896 C 116.555 286.017,109.208 299.384,102.402 335.000 C 101.075 341.945,98.791 360.808,98.056 370.907 C 97.603 377.115,97.165 376.128,95.251 364.600 C 84.778 301.521,93.517 261.502,119.100 255.385 C 120.695 255.004,122.000 254.506,122.000 254.279 C 122.000 253.316,122.474 254.513,123.567 258.235 M201.901 324.176 C 201.982 379.892,201.900 394.216,201.501 394.470 C 201.226 394.645,200.235 394.791,199.300 394.794 L 197.600 394.800 197.600 324.379 L 197.600 253.958 199.700 254.079 L 201.800 254.200 201.901 324.176 M281.000 255.581 C 288.777 257.360,296.080 264.181,300.779 274.055 C 310.376 294.221,311.232 324.664,303.451 369.105 C 302.099 376.827,301.874 376.817,301.229 369.000 C 300.313 357.884,298.532 343.597,296.977 334.887 C 296.635 332.969,296.195 330.500,296.001 329.400 C 291.164 302.008,282.574 287.022,271.700 287.006 C 267.201 286.999,267.241 288.563,271.368 274.046 C 273.221 267.531,275.236 260.383,275.845 258.163 L 276.954 254.126 277.977 254.624 C 278.540 254.899,279.900 255.329,281.000 255.581 M191.906 322.100 L 192.012 334.000 172.655 334.000 L 153.299 334.000 152.399 331.900 C 151.904 330.745,150.919 328.540,150.211 327.000 C 148.501 323.284,143.600 311.006,143.600 310.440 C 143.600 310.116,150.177 310.022,167.700 310.097 L 191.800 310.200 191.906 322.100 M255.599 310.500 C 255.599 310.942,253.704 315.854,251.010 322.400 C 250.081 324.656,247.320 330.934,246.391 332.900 L 245.872 334.000 226.536 334.000 L 207.200 334.000 207.200 322.267 C 207.200 315.813,207.320 310.413,207.467 310.267 C 208.006 309.727,255.600 309.958,255.599 310.500 " stroke="none" fill="#090909" fill-rule="evenodd"></path><path id="path1" d="M197.762 7.116 C 197.081 7.712,194.111 10.292,191.162 12.849 C 175.666 26.282,158.767 49.177,145.100 75.252 C 143.050 79.164,139.600 86.679,139.600 87.233 C 139.600 87.454,163.445 87.600,199.600 87.600 C 241.512 87.600,259.600 87.472,259.600 87.177 C 259.600 86.110,253.349 73.408,249.473 66.600 C 248.597 65.060,247.425 62.990,246.869 62.000 C 243.611 56.200,233.786 42.004,228.044 34.800 C 219.797 24.455,201.559 5.968,199.647 6.016 C 199.291 6.025,198.443 6.520,197.762 7.116 M135.283 97.299 C 132.556 104.390,129.333 114.107,127.753 120.000 C 125.785 127.338,125.104 129.997,124.779 131.600 C 124.579 132.590,124.140 134.660,123.804 136.200 C 122.241 143.359,120.875 152.652,119.513 165.400 C 118.808 171.997,118.813 204.399,119.520 211.200 C 121.851 233.632,123.877 245.347,128.823 265.000 C 132.106 278.045,139.872 302.507,141.300 304.300 C 141.611 304.690,147.207 304.800,166.846 304.800 L 191.995 304.800 192.097 276.700 L 192.200 248.600 199.600 248.600 L 207.000 248.600 207.200 276.600 L 207.400 304.600 232.664 304.703 L 257.928 304.806 258.942 302.103 C 261.397 295.560,264.611 285.816,266.827 278.200 C 267.467 276.000,268.163 273.660,268.373 273.000 C 269.167 270.504,273.327 253.505,274.040 249.844 C 276.935 234.969,278.271 226.143,279.378 214.600 C 283.381 172.847,278.347 135.245,263.503 96.000 L 262.519 93.400 199.690 93.299 L 136.860 93.198 135.283 97.299 M206.870 136.785 C 230.089 141.919,242.223 166.087,232.353 187.537 C 219.961 214.467,181.286 215.391,167.632 189.084 C 153.635 162.116,177.511 130.292,206.870 136.785 M194.000 140.774 C 160.006 147.072,159.020 195.512,192.725 203.408 C 220.191 209.843,242.057 178.027,226.269 154.600 C 219.297 144.255,205.988 138.553,194.000 140.774 M208.691 148.358 C 216.478 151.418,221.219 156.635,224.359 165.600 C 229.517 180.330,216.096 197.765,199.600 197.765 C 169.139 197.765,164.892 154.699,194.600 147.054 C 197.387 146.337,205.444 147.082,208.691 148.358 M195.600 153.788 C 183.830 156.495,177.394 169.403,182.511 180.041 C 188.344 192.169,203.656 194.870,212.971 185.414 C 226.015 172.171,213.639 149.639,195.600 153.788 M122.000 254.279 C 122.000 254.506,120.695 255.004,119.100 255.385 C 93.517 261.502,84.778 301.521,95.251 364.600 C 97.165 376.128,97.603 377.115,98.056 370.907 C 98.791 360.808,101.075 341.945,102.402 335.000 C 109.208 299.384,116.555 286.017,128.840 286.896 L 131.641 287.096 131.374 285.848 C 131.227 285.162,130.876 283.880,130.593 283.000 C 130.311 282.120,128.876 277.080,127.405 271.800 C 123.023 256.070,122.000 252.753,122.000 254.279 M197.600 324.379 L 197.600 394.800 199.300 394.794 C 200.235 394.791,201.226 394.645,201.501 394.470 C 201.900 394.216,201.982 379.892,201.901 324.176 L 201.800 254.200 199.700 254.079 L 197.600 253.958 197.600 324.379 M275.845 258.163 C 275.236 260.383,273.221 267.531,271.368 274.046 C 267.241 288.563,267.201 286.999,271.700 287.006 C 282.574 287.022,291.164 302.008,296.001 329.400 C 296.195 330.500,296.635 332.969,296.977 334.887 C 298.532 343.597,300.313 357.884,301.229 369.000 C 301.874 376.817,302.099 376.827,303.451 369.105 C 311.232 324.664,310.376 294.221,300.779 274.055 C 296.080 264.181,288.777 257.360,281.000 255.581 C 279.900 255.329,278.540 254.899,277.977 254.624 L 276.954 254.126 275.845 258.163 M143.600 310.440 C 143.600 311.006,148.501 323.284,150.211 327.000 C 150.919 328.540,151.904 330.745,152.399 331.900 L 153.299 334.000 172.655 334.000 L 192.012 334.000 191.906 322.100 L 191.800 310.200 167.700 310.097 C 150.177 310.022,143.600 310.116,143.600 310.440 M207.467 310.267 C 207.320 310.413,207.200 315.813,207.200 322.267 L 207.200 334.000 226.536 334.000 L 245.872 334.000 246.391 332.900 C 247.320 330.934,250.081 324.656,251.010 322.400 C 253.704 315.854,255.599 310.942,255.599 310.500 C 255.600 309.958,208.006 309.727,207.467 310.267 " stroke="none" fill="#fbfbfb" fill-rule="evenodd"></path></g></svg>